<svg id="Capa_1" enable-background="new 0 0 512.217 512.217" height="512" viewBox="0 0 512.217 512.217" width="512" xmlns="http://www.w3.org/2000/svg"><path d="m466.109 241.15h-48.557c-10.891-43.814-44.796-76.467-86.443-87.199v-30.961c15.139 3.106 29.94 8.645 43.9 16.653 6.572 3.77 14.92 2.048 19.464-4.011l54.396-72.529c11.593-15.457-10.498-25.49-10.586-25.592-42.175-24.983-89.889-37.942-138.071-37.5-142.937 1.339-269.103 116.546-269.103 276.053v69.053c0 10.222 10.031 17.467 19.743 14.23 15.986-5.329 114.731-38.244 130.257-43.419v30.188c0 24.813-20.187 45-45 45-8.371 0-15.12 6.857-14.998 15.218.857 58.833 48.739 105.882 107.382 105.882 47.956 0 72.616-30.598 72.616-64.258 0-14.801 12.041-26.842 26.842-26.842h4.665c6.97 34.191 37.274 60 73.493 60 8.284 0 15-6.716 15-15v-72.776l36.378 25.552c9.926 6.973 23.622-.149 23.622-12.274v-150.568c0-8.284-6.716-14.9-15-14.9zm-345 63.155-60 20v-48.241c0-143.783 114.601-246.158 241.223-246.158 38.564 0 77.029 9.583 112.39 28.728l-36.583 48.778c-116.606-55.994-257.029 28.864-257.029 168.652v28.241zm30-10v-18.241c0-90.972 70.877-155.536 150-156.039v30.113c-5.113-.006-10.281.302-15.482.955-60.505 7.606-104.52 62.823-104.518 124.756v8.456zm240 154.242c-17.461-6.191-30-22.874-30-42.43 0-8.284-6.716-15-15-15h-18.159c-31.343 0-56.842 25.499-56.842 56.842 0 36.978-41.115 34.208-41.215 34.246-39.158.666-70.734-27.415-77.437-62.882 33.52-7.481 58.651-37.464 58.651-73.206 0-21.202 0-49.683 0-70.268-.001-47.749 34.375-89.473 78.26-94.99 43.161-5.427 83.348 20.174 96.952 60.291h-104.676c-16.319 0-40.534 17.792-40.534 44.967 0 24.813 20.187 45 45 45 11.527 0 22.052-4.361 30.022-11.514l74.978 52.665zm-90-162.43c0 8.127-6.64 15-15 15-8.271 0-15-6.729-15-15s6.729-15 15-15 15 6.729 15 15zm150 91.633c-2.921-2.051-108.951-76.545-120.541-84.668.354-2.271.541-4.597.541-6.965 0-5.283-.923-10.354-2.603-15.067h122.603z"/></svg>