<svg id="Capa_1" enable-background="new 0 0 512.207 512.207" height="512" viewBox="0 0 512.207 512.207" width="512" xmlns="http://www.w3.org/2000/svg"><path d="m331.104 107.721v58.46c0 .04-20.37 22.45-45 49.53-37.63 41.36-85.2 93.62-85.26 93.64l-60 20c-3.71-41.71-4.57-51.32-4.72-53.06-.01-.06-.01-.13-.02-.22v-.01c0-94.12 69.39-162.25 150-170.25 14.799-1.463 29.786-.93 45 1.91z" fill="#fdbf00"/><path d="m331.104 107.721v58.46c0 .04-20.37 22.45-45 49.53v-109.9c14.799-1.463 29.786-.93 45 1.91z" fill="#ff9100"/><path d="m421.104 364.371v101.75c0 8.28-6.72 15-15 15-36.22 0-66.52-25.81-73.49-60h-4.67c-14.8 0-26.84 12.04-26.84 26.84 0 15.58-5.64 29.92-15 41.07-11.63 13.89-29.02 22.83-48.4 23.05-1.65-.28-47.72 4.93-83.91-30.12-20.66-20.01-32.27-46.87-32.69-75.62-.125-8.355 6.63-15.22 15-15.22 24.81 0 45-20.19 45-45v-70.27c0-61.93 44.01-117.15 104.52-124.75.16-.02.32-.04.48-.06 61.2-7.44 117.82 31.85 131.83 91.58z" fill="#ffda2d"/><path d="m421.104 364.371v101.75c0 8.28-6.72 15-15 15-36.22 0-66.52-25.81-73.49-60h-4.67c-14.8 0-26.84 12.04-26.84 26.84 0 15.58-5.64 29.92-15 41.07v-337.99c61.2-7.44 117.82 31.85 131.83 91.58z" fill="#fdbf00"/><path d="m466.104 241.054h-180l18.217 70.261 153.161 107.581c9.926 6.973 23.622-.149 23.622-12.274v-150.568c0-8.284-6.716-15-15-15z" fill="#ffda2d"/><path d="m286.104 331.121c-24.813 0-45-20.187-45-45s20.187-45 45-45 45 20.187 45 45-20.187 45-45 45z" fill="#725d57"/><path d="m286.104 241.121v90c24.813 0 45-20.187 45-45s-20.187-45-45-45z" fill="#53433f"/><path d="m444.503 41.201c-4.22-1.83-59.67-41.96-144.3-41.19-4.72.04-9.42.21-14.1.51-137.03 8.49-255 121.38-255 275.55v69.05c0 10.24 10.04 17.46 19.74 14.23l90-30c6.13-2.04 10.26-7.77 10.26-14.23v-39.05c0-57.31 28.52-108.04 76.28-135.71 18.54-10.74 38.5-17.23 58.72-19.46 30.34-3.35 61.27 2.9 88.9 18.75 6.57 3.77 14.92 2.04 19.46-4.02l54.4-72.52c5.37-7.17 3.301-17.38-4.36-21.91z" fill="#ff641a"/><path d="m448.864 63.111-54.4 72.52c-4.54 6.06-12.89 7.79-19.46 4.02-27.63-15.85-58.56-22.1-88.9-18.75v-120.38c4.68-.3 9.38-.47 14.1-.51 84.63-.77 140.08 39.36 144.3 41.19 7.66 4.53 9.729 14.74 4.36 21.91z" fill="#f03800"/></svg>